<svg width="64" height="64" viewBox="0 0 64 64" fill="none" xmlns="http://www.w3.org/2000/svg">
  <defs>
    <radialGradient id="bg_grad" cx="50%" cy="50%" r="50%" fx="50%" fy="50%">
      <stop offset="0%" stop-color="#0F172A" />
      <stop offset="100%" stop-color="#020617" />
    </radialGradient>
    <filter id="glow" x="-20%" y="-20%" width="140%" height="140%">
      <feGaussianBlur stdDeviation="1.5" result="blur" />
      <feComposite in="SourceGraphic" in2="blur" operator="over" />
    </filter>
    <linearGradient id="arc_grad" x1="0%" y1="0%" x2="100%" y2="0%">
      <stop offset="0%" stop-color="#8B5CF6" />
      <stop offset="100%" stop-color="#3B82F6" />
    </linearGradient>
    <linearGradient id="circuit_grad" x1="0%" y1="0%" x2="0%" y2="100%">
      <stop offset="0%" stop-color="#22D3EE" />
      <stop offset="100%" stop-color="#0891B2" />
    </linearGradient>
  </defs>
  <rect width="64" height="64" rx="16" fill="url(#bg_grad)" />
  <circle cx="32" cy="32" r="28" stroke="#0891B2" stroke-width="0.5" stroke-dasharray="2 1" opacity="0.3" />
  <path d="M15 22C20 17 44 17 49 22" stroke="url(#arc_grad)" stroke-width="2" stroke-linecap="round" filter="url(#glow)" />
  <g filter="url(#glow)">
    <path d="M20 48 L28.75 25.5 L32.5 25.5" stroke="url(#circuit_grad)" stroke-width="3" stroke-linecap="round" stroke-linejoin="round" />
    <path d="M23.125 38.25 L30.625 38.25" stroke="url(#circuit_grad)" stroke-width="3" stroke-linecap="round" />
    <circle cx="20" cy="48" r="1.5" fill="#22D3EE" />
    <circle cx="28.75" cy="25.5" r="1" fill="#22D3EE" />
    <path d="M31.5 25.5 L35.25 25.5 L44 48" stroke="url(#circuit_grad)" stroke-width="3" stroke-linecap="round" stroke-linejoin="round" />
    <path d="M33.375 38.25 L40.875 38.25" stroke="url(#circuit_grad)" stroke-width="3" stroke-linecap="round" />
    <circle cx="44" cy="48" r="1.5" fill="#22D3EE" />
    <circle cx="35.25" cy="25.5" r="1" fill="#22D3EE" />
  </g>
</svg>
